<?xml version="1.0" encoding="utf-8"?>
<!-- Generator: Adobe Illustrator 24.2.3, SVG Export Plug-In . SVG Version: 6.00 Build 0)  -->
<svg version="1.1" id="aaba0e37-9041-4e47-99c0-3bc98a69ed5f"
	 xmlns="http://www.w3.org/2000/svg" xmlns:xlink="http://www.w3.org/1999/xlink" x="0px" y="0px" viewBox="0 0 913.2 482.7"
	 style="enable-background:new 0 0 913.2 482.7;" xml:space="preserve">
<style type="text/css">
	.st0{fill:#F2F2F2;}
	.st1{fill:#FFFFFF;}
	.st2{fill:#3F3D56;}
	.st3{fill:#CCCCCC;}
	.st4{fill:#F9A826;}
	.st5{fill:#FFB8B8;}
	.st6{fill:#2F2E41;}
	.st7{fill:#5A76FD;}
</style>
<path class="st0" d="M798.6,422.9c-23.8-0.2-47.6-2-71.3-5.2c-0.8-0.1-1.7-0.2-2.5-0.4L726,194c0.8-0.7,1.7-1.3,2.5-1.9
	c2.8-2.1,5.7-4,8.6-5.8c14.3-8.6,31.1-12.6,42.6-8.6l0.2,0.1c2.5,0.9,4.9,2.2,6.9,4c10.1,9,8.5,27.2,0.3,43.8
	c16.2-14.8,36.7-26.7,55-27.6c17.8-0.9,30.6,8.5,41.4,18.6c0.4,0.3,0.7,0.7,1.1,1c0.2,0.2,0.3,0.3,0.5,0.5
	c8.3,7.9,16.4,17.1,15.4,30.4c-1.1,14.6-13.3,30.8-27.6,42.2s-30.4,18.9-46.2,26.6s-32,16-45.5,28.2c21.1-16.7,45-30.1,68.3-35
	s45.7-0.6,56.7,14.2c3.2,4.5,5.3,9.7,6.1,15.2c0.1,0.6,0.2,1.3,0.3,2c1.6,13.7-3.2,30.1-14.5,44.1c-12.5,15.4-31,26-48.6,31.3
	C832,422.5,815,423.1,798.6,422.9z"/>
<path class="st1" d="M725.7,276.8v-4.3c0.8-1.4,1.7-2.7,2.5-4.1c0.5-0.8,1-1.7,1.6-2.6c8.6-14.2,16.9-28.4,24.9-42.8
	c8-14.3,15.5-28.7,22.8-43.2c0.3-0.8,1.2-1.2,2-1c0.1,0,0.1,0,0.1,0.1c0.4,0.2,0.5,0.7,0.2,1.3c-0.9,1.8-1.8,3.6-2.7,5.3
	c-7.3,14.5-15,29-23.1,43.3c-8.1,14.4-16.5,28.7-25.3,42.9c-0.2,0.3-0.4,0.6-0.6,0.9C727.3,274.1,726.5,275.5,725.7,276.8z"/>
<path class="st1" d="M725.4,331.9v-2.6c0.8-0.6,1.7-1.2,2.5-1.8c19.6-14,39.2-28,58.9-42c32.1-22.9,64.2-45.8,96.4-68.7
	c0.2-0.1,0.4-0.2,0.6-0.3c0.7-0.2,1.1,0.3,1.1,1c-0.1,0.6-0.4,1.1-0.9,1.4c-18,12.8-36,25.7-54,38.5c-32,22.8-63.9,45.6-95.9,68.3
	c-2,1.4-4.1,2.9-6.1,4.3C727,330.7,726.2,331.3,725.4,331.9z"/>
<path class="st1" d="M740.7,390.7c-4.4-0.1-8.8-0.4-13.2-0.8c-0.8-0.1-1.7-0.1-2.5-0.2v-2.8c0.8,0.1,1.7,0.2,2.5,0.2
	c6.3,0.6,12.6,1,19.1,1.1c18,0.1,36.1-1.7,53.8-5.2c19.1-3.8,37.7-9.2,55.8-16.3c19.1-7.4,37.6-16.3,55.2-26.6
	c0.3-0.2,0.6-0.3,1-0.2c0.8,0.1,1,1.2,0.3,2c-0.1,0.2-0.3,0.3-0.5,0.4c-2.2,1.3-4.4,2.5-6.6,3.8c-17.8,9.9-36.3,18.5-55.4,25.5
	c-18.2,6.7-36.9,11.7-55.9,15.2C776.6,389.7,758.7,391.1,740.7,390.7z"/>
<path class="st2" d="M718.7,0h-607c-4.8,0-8.7,3.9-8.7,8.7V420c0,4.8,3.9,8.7,8.7,8.7h607c2.6,0,5-1.1,6.6-3.1
	c0.1-0.1,0.1-0.2,0.2-0.2c0.5-0.6,0.9-1.3,1.3-2.1c0.4-1,0.7-2.2,0.7-3.3V8.7C727.4,3.9,723.5,0,718.7,0z M724.9,420
	c0,1.2-0.4,2.4-1,3.4c-0.6,0.9-1.4,1.6-2.4,2.1c-0.9,0.5-1.9,0.7-2.9,0.7h-607c-3.4,0-6.2-2.8-6.2-6.2V8.7c0-3.4,2.8-6.2,6.2-6.2
	h607c3.4,0,6.2,2.8,6.2,6.2V420H724.9z"/>
<rect x="104.2" y="34.9" class="st2" width="622" height="2.5"/>
<circle class="st2" cx="125.4" cy="18.7" r="7.5"/>
<circle class="st2" cx="146.9" cy="18.7" r="7.5"/>
<circle class="st2" cx="168.4" cy="18.7" r="7.5"/>
<path class="st2" d="M571.3,92.7h-312c-7.2,0-13-5.8-13-13s5.8-13,13-13h312c7.2,0,13,5.8,13,13S578.5,92.7,571.3,92.7z M259.3,68.7
	c-6.1,0-11,4.9-11,11s4.9,11,11,11h312c6.1,0,11-4.9,11-11s-4.9-11-11-11H259.3z"/>
<path class="st3" d="M261.9,172.2h-28c-4.4,0-8-3.6-8-8s3.6-8,8-8h28c4.4,0,8,3.6,8,8S266.3,172.2,261.9,172.2z"/>
<path class="st3" d="M294.9,199.2h-61c-4.4,0-8-3.6-8-8s3.6-8,8-8h61c4.4,0,8,3.6,8,8S299.3,199.2,294.9,199.2z"/>
<path class="st3" d="M266.9,290.2h-28c-4.4,0-8-3.6-8-8s3.6-8,8-8h28c4.4,0,8,3.6,8,8S271.3,290.2,266.9,290.2z"/>
<path class="st3" d="M299.9,317.2h-61c-4.4,0-8-3.6-8-8s3.6-8,8-8h61c4.4,0,8,3.6,8,8S304.3,317.2,299.9,317.2z"/>
<path class="st3" d="M450.9,287.2h-28c-4.4,0-8-3.6-8-8s3.6-8,8-8h28c4.4,0,8,3.6,8,8S455.3,287.2,450.9,287.2z"/>
<path class="st3" d="M483.9,314.2h-61c-4.4,0-8-3.6-8-8s3.6-8,8-8h61c4.4,0,8,3.6,8,8S488.3,314.2,483.9,314.2z"/>
<path class="st3" d="M447.9,177.2h-28c-4.4,0-8-3.6-8-8s3.6-8,8-8h28c4.4,0,8,3.6,8,8S452.3,177.2,447.9,177.2z"/>
<path class="st3" d="M480.9,204.2h-61c-4.4,0-8-3.6-8-8s3.6-8,8-8h61c4.4,0,8,3.6,8,8S485.3,204.2,480.9,204.2z"/>
<path class="st3" d="M634.9,171.2h-28c-4.4,0-8-3.6-8-8s3.6-8,8-8h28c4.4,0,8,3.6,8,8S639.3,171.2,634.9,171.2z"/>
<path class="st3" d="M667.9,198.2h-61c-4.4,0-8-3.6-8-8s3.6-8,8-8h61c4.4,0,8,3.6,8,8S672.3,198.2,667.9,198.2z"/>
<circle class="st4" cx="184.5" cy="177.7" r="30"/>
<path class="st1" d="M198.5,191.2h-28c-1.7,0-3-1.3-3-3v-21c0-1.7,1.3-3,3-3h7.9c1,0,2,0.5,2.6,1.4l2.2,3.6h15.4c1.7,0,3,1.3,3,3v16
	C201.5,189.8,200.2,191.2,198.5,191.2z M170.5,166.2c-0.6,0-1,0.4-1,1v21c0,0.6,0.4,1,1,1h28c0.6,0,1-0.4,1-1v-16c0-0.6-0.4-1-1-1
	H182l-2.8-4.5c-0.2-0.3-0.5-0.5-0.9-0.5H170.5z"/>
<circle class="st4" cx="368.5" cy="182.7" r="30"/>
<path class="st1" d="M381.5,201.7h-26c-1.7,0-3-1.3-3-3v-32c0-1.7,1.3-3,3-3h18.8c0.7,0,1.3,0.2,1.9,0.7l7.2,5.8
	c0.7,0.6,1.1,1.4,1.1,2.3v26.2C384.5,200.3,383.2,201.7,381.5,201.7z M355.5,165.7c-0.6,0-1,0.4-1,1v32c0,0.6,0.4,1,1,1h26
	c0.6,0,1-0.4,1-1v-26.2c0-0.3-0.1-0.6-0.4-0.8l-7.2-5.8c-0.2-0.1-0.4-0.2-0.6-0.2H355.5z"/>
<path class="st1" d="M376.5,177.7h-16c-0.6,0-1-0.4-1-1s0.4-1,1-1h16c0.6,0,1,0.4,1,1S377.1,177.7,376.5,177.7z"/>
<path class="st1" d="M376.5,183.7h-16c-0.6,0-1-0.4-1-1s0.4-1,1-1h16c0.6,0,1,0.4,1,1S377.1,183.7,376.5,183.7z"/>
<path class="st1" d="M376.5,189.7h-16c-0.6,0-1-0.4-1-1s0.4-1,1-1h16c0.6,0,1,0.4,1,1S377.1,189.7,376.5,189.7z"/>
<circle class="st4" cx="553.5" cy="176.7" r="30"/>
<path class="st1" d="M567.5,187.7h-28c-1.7,0-3-1.3-3-3v-16c0-1.7,1.3-3,3-3h28c1.7,0,3,1.3,3,3v16
	C570.5,186.3,569.2,187.7,567.5,187.7z M539.5,167.7c-0.6,0-1,0.4-1,1v16c0,0.6,0.4,1,1,1h28c0.6,0,1-0.4,1-1v-16c0-0.6-0.4-1-1-1
	H539.5z"/>
<path class="st1" d="M553.5,179.3c-0.6,0-1.1-0.2-1.6-0.5l-14.9-9.3c-0.5-0.3-0.6-0.9-0.3-1.4s0.9-0.6,1.4-0.3l14.9,9.3
	c0.3,0.2,0.7,0.2,1.1,0l14.9-9.3c0.5-0.3,1.1-0.1,1.4,0.3c0.3,0.5,0.1,1.1-0.3,1.4l-14.9,9.3C554.6,179.1,554.1,179.3,553.5,179.3z"
	/>
<circle class="st4" cx="184.5" cy="295.7" r="30"/>
<path class="st1" d="M198.5,306.7h-28c-1.7,0-3-1.3-3-3v-16c0-1.7,1.3-3,3-3h28c1.7,0,3,1.3,3,3v16
	C201.5,305.3,200.2,306.7,198.5,306.7z M170.5,286.7c-0.6,0-1,0.4-1,1v16c0,0.6,0.4,1,1,1h28c0.6,0,1-0.4,1-1v-16c0-0.6-0.4-1-1-1
	H170.5z"/>
<path class="st1" d="M194.1,306.7H174c-1.1,0-2-0.9-2-2c0-0.4,0.1-0.7,0.3-1l6.1-10.5c0.6-1,1.8-1.3,2.7-0.7
	c0.3,0.2,0.6,0.4,0.7,0.7l3.9,6.8l2.3-3.9c0.6-1,1.8-1.3,2.7-0.7c0.3,0.2,0.6,0.4,0.7,0.7l4.4,7.6c0.6,1,0.2,2.2-0.7,2.7
	C194.8,306.6,194.4,306.7,194.1,306.7L194.1,306.7z M194.1,304.7L194.1,304.7l-4.4-7.6l-3.1,5.4c-0.2,0.3-0.5,0.5-0.9,0.5l0,0
	c-0.4,0-0.7-0.2-0.9-0.5l-4.8-8.3l-6.1,10.5H194.1z"/>
<circle class="st1" cx="195.5" cy="290.7" r="2"/>
<circle class="st4" cx="370.5" cy="292.7" r="30"/>
<path class="st1" d="M370.5,293.2c-5,0-9-4-9-9s4-9,9-9s9,4,9,9C379.5,289.1,375.5,293.1,370.5,293.2z M370.5,277.2
	c-3.9,0-7,3.1-7,7s3.1,7,7,7s7-3.1,7-7C377.5,280.3,374.4,277.2,370.5,277.2z"/>
<path class="st1" d="M378.5,310.2h-16c-1.9,0-3.5-1.6-3.5-3.5c0-6.4,5.1-11.5,11.5-11.5s11.5,5.1,11.5,11.5
	C382,308.6,380.4,310.1,378.5,310.2z M370.5,297.2c-5.2,0-9.5,4.3-9.5,9.5c0,0.8,0.7,1.5,1.5,1.5h16c0.8,0,1.5-0.7,1.5-1.5
	C380,301.4,375.8,297.2,370.5,297.2z"/>
<polygon class="st5" points="80.9,471.2 93.2,471.2 99,423.9 80.9,423.9 "/>
<path class="st6" d="M116.8,482.6H78.3l0,0v-14.9l0,0h23.6C110.2,467.7,116.8,474.4,116.8,482.6L116.8,482.6L116.8,482.6z"/>
<polygon class="st5" points="34.9,471.2 47.2,471.2 53,423.9 34.9,423.9 "/>
<path class="st6" d="M70.8,482.6H32.3l0,0v-14.9l0,0h23.6C64.2,467.7,70.8,474.4,70.8,482.6L70.8,482.6L70.8,482.6z"/>
<path class="st5" d="M36.4,330.4c5-3.2,6.4-9.9,3.2-14.8c-0.3-0.5-0.7-1-1.2-1.5l8.1-114.6l-23.3,2.3L22.6,314
	c-4.1,4.3-3.9,11.2,0.4,15.3C26.7,332.6,32.3,333.1,36.4,330.4L36.4,330.4z"/>
<path class="st6" d="M81.3,447.4c-2.3,0-4.2-1.7-4.5-4l-7.1-59.6c-0.2-1.9-2-3.3-3.9-3.1c-1.6,0.2-2.8,1.4-3,2.9l-9,57.1
	c-0.3,2.2-2.2,3.8-4.4,3.8H34.8c-2.5,0-4.5-2-4.5-4.5l0,0l6.9-126.5c0-2.2,1.6-4.1,3.9-4.4l54-7.8c2.5-0.4,4.7,1.3,5.1,3.8
	c0,0.2,0,0.5,0,0.7l-0.9,136.6c0,2.4-1.9,4.3-4.3,4.5l-13.5,0.6C81.4,447.4,81.4,447.4,81.3,447.4z"/>
<path class="st7" d="M53.3,318.3c-5.2,0-10.3-0.9-15.2-2.7c-1.7-0.6-2.8-2.2-2.9-4c-0.5-10.3-3.2-63.5-11.1-96
	c-3.2-13,1.8-26.7,12.6-34.6c0.4-0.3,0.9-0.6,1.3-0.9c9.3-6.2,21.2-7.1,31.4-2.5c10.5,4.7,17.8,14.5,19.4,26l12.9,96.1
	c0.2,1.2-0.2,2.4-0.9,3.4c-0.7,1-1.8,1.6-3.1,1.7c-4.5,0.4-13.8,2.2-25.7,8.8C66.3,316.7,59.9,318.3,53.3,318.3z"/>
<path class="st7" d="M37.5,238.6l-21.3-5.8c-2.4-0.7-3.8-3.1-3.2-5.5l7.5-27.6c1.8-6.6,8.6-10.5,15.2-8.7c5.6,1.5,9.5,6.8,9.1,12.6
	l-1.7,30.9c-0.1,2.5-2.3,4.4-4.7,4.2C38.1,238.8,37.8,238.7,37.5,238.6z"/>
<circle class="st5" cx="61.2" cy="140" r="24.6"/>
<path class="st5" d="M150.2,188.3c-0.1,0.5-0.2,1.1-0.2,1.6l-43,24.8l-10.4-6l-11.1,14.6l22.3,15.9l49-38.7c5.4,2,11.5-0.8,13.5-6.2
	s-0.8-11.5-6.2-13.5s-11.5,0.8-13.5,6.2C150.4,187.4,150.3,187.8,150.2,188.3z"/>
<path class="st7" d="M103.4,215.9l-18.5,12c-2.1,1.3-4.9,0.8-6.2-1.3l-15.6-24c-3.7-5.7-2.1-13.4,3.7-17.2
	c4.9-3.2,11.4-2.5,15.5,1.6l21.9,21.9c1.8,1.8,1.8,4.6,0,6.4C104,215.5,103.7,215.7,103.4,215.9z"/>
<path class="st6" d="M43.8,159.4c4.6,4.9,13.1,2.3,13.7-4.4c0-0.5,0-1,0-1.6c-0.3-3-2-5.6-1.6-8.8c0.1-0.8,0.4-1.5,0.8-2.1
	c3.7-4.9,12.2,2.2,15.7-2.2c2.1-2.7-0.4-7,1.3-10c2.1-4,8.5-2,12.5-4.2c4.4-2.4,4.2-9.2,1.2-13.4c-3.6-5-9.8-7.7-15.9-8.1
	s-12.3,1.3-18,3.5c-6.5,2.5-13,6.1-17,11.8c-4.9,7-5.3,16.3-2.9,24.5C35,149.4,40.1,155.5,43.8,159.4z"/>
<path class="st2" d="M141,482.7H1c-0.6,0-1-0.4-1-1s0.4-1,1-1h140c0.6,0,1,0.4,1,1S141.6,482.7,141,482.7z"/>
</svg>
