<?xml version="1.0" encoding="utf-8"?>
<!-- Generator: Adobe Illustrator 24.2.3, SVG Export Plug-In . SVG Version: 6.00 Build 0)  -->
<svg version="1.1" id="bd411abf-b37a-4216-8308-03ddb60011b7"
	 xmlns="http://www.w3.org/2000/svg" xmlns:xlink="http://www.w3.org/1999/xlink" x="0px" y="0px" viewBox="0 0 895.3 796.5"
	 style="enable-background:new 0 0 895.3 796.5;" xml:space="preserve">
<style type="text/css">
	.st0{fill:#F2F2F2;}
	.st1{fill:#FFFFFF;}
	.st2{fill:#FF9700;}
	.st3{fill:#CCCCCC;}
	.st4{fill:#2F2E41;}
	.st5{fill:#5A76FD;}
	.st6{fill:#3F3D56;}
</style>
<path class="st0" d="M175.1,793.3c9-7.6,14.5-19.6,13-31.3s-10.3-22.4-21.8-24.9s-24.6,4.4-28.1,15.6c-1.9-21.7-4.1-44.3-15.7-62.7
	C112,673.3,94,661.3,74.4,659.2s-40.2,5.9-52.4,21.4s-15.2,37.9-6.7,55.7c6.3,13.1,17.9,22.8,30.1,30.7c38.8,25.3,87,33.8,132.8,27
	L175.1,793.3z"/>
<path class="st1" d="M41.3,665.6c16.2,13.2,31,27.9,44.3,44s25,33.4,34.9,51.7c5.6,10.3,10.5,20.8,14.9,31.7c0.9,2.2-2.7,3.2-3.6,1
	c-7.8-19.1-17.4-37.3-28.8-54.5c-11.3-17.1-24.2-33.1-38.6-47.7c-8.1-8.3-16.7-16.1-25.7-23.4C36.9,666.7,39.5,664.1,41.3,665.6
	L41.3,665.6z"/>
<path class="st2" d="M818.8,329.5h-123c-3.9,0-7-3.1-7-7v-14.8c0-3.9,3.1-7,7-7h123c3.9,0,7,3.1,7,7v14.8
	C825.8,326.4,822.7,329.5,818.8,329.5z"/>
<path class="st2" d="M802.2,307l-52.4-47.3c-2.3-2.1-5.8-2.2-8.3-0.3l-114.7,37.9c-3.4,1.1-5.3,4.8-4.1,8.2l4.6,14
	c1.1,3.4,4.8,5.3,8.2,4.1l0,0l105.2-34.7l42.9,38.7c1.2,1.1,2.7,1.7,4.3,1.7c0.1,0,0.2,0,0.3,0c1.7-0.1,3.3-0.9,4.5-2.1l9.9-11
	C805.1,313.5,804.9,309.4,802.2,307z"/>
<path class="st2" d="M221.7,660.4c-3.3,0-6,2.7-6,6v123c0,3.3,2.7,6,6,6h14.8c3.3,0,6-2.7,6-6v-123c0-3.3-2.7-6-6-6H221.7z"/>
<path class="st2" d="M267.7,796.5h-14.8c-3.9,0-7-3.1-7-7v-123c0-3.9,3.1-7,7-7h14.8c3.9,0,7,3.1,7,7v123
	C274.7,793.3,271.5,796.4,267.7,796.5z"/>
<path class="st3" d="M291.8,676c0,0,5.6,50.1-50.7,48.4s-34.4-51-34.4-51s11.8-9.2,41.5-0.3S291.8,676,291.8,676z"/>
<path class="st2" d="M267.6,590.6c-7.9,0-14.4-6.4-14.4-14.4c0-4.8,2.4-9.3,6.4-12l96.4-63.8c3.2-2.1,7.6-1.3,9.7,2l0,0l8.1,12.3
	c2.1,3.2,1.2,7.6-2,9.7l-96.4,63.8C273.2,589.8,270.4,590.6,267.6,590.6z"/>
<circle class="st2" cx="250.1" cy="480.6" r="51"/>
<path class="st4" d="M250.2,502c3.3-0.1,7.4-0.2,10.6-2.5c1.9-1.5,3.1-3.7,3.2-6.1c0.1-1.7-0.6-3.4-1.9-4.5c-1.7-1.4-4.1-1.7-6.7-1
	l2.7-19.7l-2-0.3l-3.2,23.2l1.7-0.8c1.9-0.9,4.6-1.3,6.2,0.1c0.8,0.7,1.2,1.8,1.2,2.9c-0.1,1.8-1,3.4-2.4,4.5
	c-2.5,1.8-5.7,2-9.5,2.1L250.2,502z"/>
<rect x="267.9" y="469.9" class="st4" width="10.8" height="2"/>
<rect x="233.9" y="469.9" class="st4" width="10.8" height="2"/>
<path class="st5" d="M200.4,684.7c0,0-4.4-149.7,57.2-139.4s36,154.9,36,154.9s-13.2,26.4-45.5-2.9S200.4,684.7,200.4,684.7z"/>
<path class="st4" d="M221.4,437.5c9.9-6.7,22.4-2.2,32.1,2.6c9.4,4.7,19.9,10.6,30.5,6.1c4.1-1.8,7.5-5.2,8.1-9.8
	c0.7-5.5-2.6-10.6-6.3-14.3c-4-3.8-8.7-6.9-13.8-9.1c-5-2.2-10.3-3.9-15.7-4.8c-21.7-3.8-43.9,3.2-59.6,18.7
	c-15.1,15.4-22.9,36.5-21.4,58.1c0.8,11.3,4.5,22.9,11.7,31.8c6.8,8.4,17,14.2,27.9,14.7c2.7,0.1,5.3-0.1,8-0.6
	c1.9-0.4,2.7,2.5,0.8,2.9c-11.4,2.4-23.1-1.2-32.1-8.3c-9.5-7.5-15.3-18.7-17.8-30.4c-4.9-22.3,1.2-46.2,15.2-64
	c6.9-8.9,15.9-15.9,26.1-20.6c10.6-4.7,22.1-6.8,33.7-6.2c11.5,0.6,22.7,4.1,32.5,10.3c8.7,5.6,18.6,17.6,11.5,28.2
	c-2.7,4-7.1,6.4-11.7,7.4c-5.3,1-10.7,0.5-15.7-1.4c-11.4-4-22-13-34.7-11.7c-2.8,0.3-5.5,1.3-7.8,2.8
	C221.3,441.2,219.8,438.6,221.4,437.5L221.4,437.5z"/>
<path class="st2" d="M657.1,205.2c-6.4-4.1-8.3-12.7-4.2-19.2c2-3.1,5.1-5.3,8.7-6.1l113-24.6c3.5-0.8,7,1.5,7.7,5l-0.5,0.1l0.5-0.1
	l3.1,14.4c0.8,3.5-1.5,7-5,7.7l0,0l-113,24.6c-0.5,0.1-1,0.2-1.5,0.2C662.9,207.7,659.7,206.9,657.1,205.2z"/>
<path class="st5" d="M647.8,197L647.8,197c-0.1-0.3-0.1-0.5-0.2-0.8c-0.9-4.9,0.8-10,4.8-14.5c4.4-4.6,10-7.8,16.3-9.1l51.5-11.3
	c3.5-0.8,7,1.5,7.7,5c0,0.1,0,0.1,0,0.2l4.5,23.7c0.7,3.5-1.5,6.8-5,7.6l-51.8,11.3c-2.3,0.5-4.7,0.8-7.1,0.8
	C658.3,209.9,649.8,204.9,647.8,197z"/>
<circle class="st2" cx="656.8" cy="93.1" r="51"/>
<path class="st4" d="M699.9,111.5c3.3-0.1,7.4-0.2,10.6-2.5c1.9-1.5,3.1-3.7,3.2-6.1c0.1-1.7-0.6-3.4-1.9-4.5
	c-1.7-1.4-4.1-1.7-6.7-1l2.7-19.7l-2-0.3l-3.2,23.2l1.7-0.8c1.9-0.9,4.6-1.3,6.2,0.1c0.8,0.7,1.2,1.8,1.2,2.9
	c-0.1,1.8-1,3.4-2.4,4.5c-2.5,1.8-5.7,2-9.5,2.1L699.9,111.5z"/>
<rect x="683.6" y="79.4" class="st4" width="10.8" height="2"/>
<path class="st4" d="M653.3,41.9c-0.8-12.2-6.8-23.5-16.5-30.9c-10-7.4-22.9-9.9-35-6.7c-12,3.1-21.9,11.6-26.9,22.9
	c-2.5,5.6-3.7,11.6-3.6,17.7c0.3,6.6,1.9,13.1,4.8,19.1c3,6.6,6.8,12.7,10.1,19.1c3.2,6.3,6,12.9,8.4,19.6
	c4.7,13.7,7.5,27.9,8.3,42.4c1.2,22.8-1,56-26.7,64.8c-6.5,2.2-13.6,2.6-20.4,2.6c-7.2,0.1-14.4-0.8-21.4-2.5
	c-12.1-3.2-23.7-10.8-28.8-22.7c-1.2-2.7-2-5.6-2.4-8.6c-0.1-0.8,0.8-1.5,1.5-1.5c0.8,0,1.5,0.7,1.5,1.5
	c1.7,12.6,12.2,22.3,23.6,26.6c6.7,2.4,13.7,3.8,20.7,4c7,0.4,14.4,0.3,21.3-1.3c6.1-1.3,11.7-4.5,16-9.1c3.8-4.4,6.7-9.5,8.4-15.1
	c4.1-12.4,4.5-26,3.8-38.9c-0.8-14.4-3.7-28.6-8.5-42.2c-2.4-6.9-5.4-13.5-8.8-20c-3.3-6.3-7.1-12.4-9.9-18.9
	c-2.7-6-4.3-12.5-4.4-19.2c0-6.1,1.2-12.2,3.6-17.8c4.7-11.4,14.1-20.3,25.8-24.4c11.9-4.1,25-3.1,36,3c10.5,6,18.2,16,21.3,27.7
	c0.7,2.9,1.2,5.8,1.3,8.8C656.4,43.9,653.4,43.8,653.3,41.9L653.3,41.9z"/>
<path class="st4" d="M643.3,43c-0.8-5.6-3.6-10.6-7.9-14.3c-4.5-3.8-10.3-5.7-16.2-5.4c-1.9,0.1-1.9-2.9,0-3
	c13.2-0.6,24.8,8.8,26.9,21.9C646.5,44.1,643.6,44.9,643.3,43L643.3,43z"/>
<path class="st4" d="M637,43.2c-1-2.9,0.6-6,3.5-6.9l14.2-4.7c2.9-1,6,0.6,6.9,3.5c1,2.9-0.6,6-3.5,6.9L644,46.7
	C641.1,47.6,638,46,637,43.2L637,43.2L637,43.2z"/>
<path class="st3" d="M748.2,112.5c-2.7,0.6-4.4,3.2-3.9,5.9c0.2,1.1,0.8,2.1,1.7,2.8l22,18.3c0.3,0.3,0.6,0.6,0.8,1s0.3,0.8,0.3,1.2
	l1.4,33.5c0.1,2.3,1.6,4.2,3.8,4.7l0,0c2.2,0.5,4.4-0.5,5.5-2.5l7.9-14.5c0.5-1,1.6-1.6,2.7-1.5c0.8,0,1.6,0.3,2.1,0.9l38.1,40.7
	c1.1,1.2,2.8,1.8,4.4,1.5c1.6-0.2,3-1.2,3.7-2.7L894.8,90c1.2-2.5,0.2-5.5-2.2-6.7c-1-0.5-2.2-0.7-3.3-0.4l-1.8,0.4L748.2,112.5
	L748.2,112.5z M747.3,119.7c-1.3-1.1-1.4-3-0.4-4.2c0.4-0.5,1-0.9,1.7-1l139.2-29.2l1.9-0.4c1.6-0.3,3.2,0.7,3.6,2.3
	c0.1,0.7,0,1.3-0.2,1.9l-55.9,111.8c-0.7,1.5-2.5,2.1-4,1.3c-0.3-0.2-0.6-0.4-0.8-0.6L794.1,161c-0.4-0.4-0.8-0.7-1.3-1l96.8-70.2
	c0.9-0.6,1.1-1.9,0.5-2.8c-0.5-0.7-1.3-1-2.1-0.8c-0.1,0-0.2,0.1-0.3,0.1l-117.5,52.5c-0.2-0.3-0.5-0.6-0.8-0.8L747.3,119.7
	L747.3,119.7z"/>
<path class="st6" d="M748.2,112.5c-2.7,0.6-4.4,3.2-3.9,5.9c0.2,1.1,0.8,2.1,1.7,2.8l22,18.3c0.3,0.3,0.6,0.6,0.8,1s0.3,0.8,0.3,1.2
	l1.4,33.5c0.1,2.3,1.6,4.2,3.8,4.7l0,0c2.2,0.5,4.4-0.5,5.5-2.5l7.9-14.5c0.5-1,1.6-1.6,2.7-1.5c0.8,0,1.6,0.3,2.1,0.9l38.1,40.7
	c1.1,1.2,2.8,1.8,4.4,1.5c1.6-0.2,3-1.2,3.7-2.7L894.8,90c1.2-2.5,0.2-5.5-2.2-6.7c-1-0.5-2.2-0.7-3.3-0.4l-1.8,0.4L748.2,112.5
	L748.2,112.5z M747.3,119.7c-1.3-1.1-1.4-3-0.4-4.2c0.4-0.5,1-0.9,1.7-1l139.2-29.2l1.9-0.4c1.6-0.3,3.2,0.7,3.6,2.3
	c0.1,0.7,0,1.3-0.2,1.9l-55.9,111.8c-0.7,1.5-2.5,2.1-4,1.3c-0.3-0.2-0.6-0.4-0.8-0.6L794.1,161c-0.4-0.4-0.8-0.7-1.3-1
	c-0.7-0.4-1.5-0.6-2.3-0.6c-0.1,0-0.2,0-0.3,0l0,0c-1.7,0.1-3.3,1.1-4.1,2.6l-7.9,14.5c-0.6,1.2-2,1.8-3.3,1.5l0,0
	c-1.3-0.3-2.3-1.4-2.3-2.8l-1.4-33.5c0-0.4-0.1-0.7-0.2-1l0,0c-0.1-0.3-0.2-0.6-0.4-1c-0.1-0.3-0.3-0.6-0.5-0.8
	c-0.2-0.3-0.5-0.6-0.8-0.8L747.3,119.7L747.3,119.7z"/>
<path class="st6" d="M770.1,138.7l117.5-52.5c0.1,0,0.2-0.1,0.3-0.1c1.1-0.3,2.2,0.4,2.4,1.5c0.2,0.8-0.1,1.6-0.8,2.1L792.8,160
	l-1.7,1.2l-1.2-1.6l0.3-0.2l0,0l98.2-71.3L771,140.5l0,0l-0.5,0.2l-0.8-1.8L770.1,138.7z"/>
<path class="st5" d="M623.3,298c-3,0-5.5,2.5-5.5,5.5v20c0,3,2.5,5.5,5.5,5.5h64c3,0,5.5-2.5,5.5-5.5v-20c0-3-2.5-5.5-5.5-5.5H623.3
	z"/>
<path class="st5" d="M615.7,196.5c-3.1,8.9-3.6,18.4-1.6,27.5c5.1,24.9,3.2,54.4-1.8,85.9c0,3.3,2.3,6,5.2,6h78.2
	c2.8,0,5.2-2.7,5.2-6v-93.5c0-27.6-18.8-50.2-42.3-51.4c-0.7,0-1.3-0.1-2-0.1C638.2,165,622.4,178,615.7,196.5z"/>
<path class="st2" d="M640.6,317.9V202.2c0-7.7,6.2-13.9,13.9-13.9s13.9,6.2,13.9,13.9v115.6c0,3.6-2.9,6.5-6.5,6.5h-14.8
	C643.5,324.4,640.6,321.4,640.6,317.9z"/>
<path class="st5" d="M664.4,235l-21-0.9c-3.6-0.2-6.4-3.2-6.2-6.8l1.5-33.5c0.4-9.4,8.3-16.7,17.7-16.3s16.7,8.3,16.3,17.7v0.1
	l-1.5,33.5c-0.2,3.5-3,6.2-6.5,6.2C664.6,235,664.5,235,664.4,235z"/>
<ellipse class="st5" cx="700.8" cy="242" rx="4.5" ry="14.5"/>
<circle class="st3" cx="454.1" cy="397.5" r="25"/>
<path class="st3" d="M701.4,422.5h-192c-4.4,0-8-3.6-8-8s3.6-8,8-8h192c4.4,0,8,3.6,8,8S705.8,422.5,701.4,422.5z"/>
<path class="st3" d="M649.4,388.5h-140c-4.4,0-8-3.6-8-8s3.6-8,8-8h140c4.4,0,8,3.6,8,8S653.8,388.5,649.4,388.5z"/>
<circle class="st3" cx="454.1" cy="492.5" r="25"/>
<path class="st3" d="M701.4,517.5h-192c-4.4,0-8-3.6-8-8s3.6-8,8-8h192c4.4,0,8,3.6,8,8C709.4,513.9,705.8,517.5,701.4,517.5z"/>
<path class="st3" d="M649.4,483.5h-140c-4.4,0-8-3.6-8-8s3.6-8,8-8h140c4.4,0,8,3.6,8,8S653.8,483.5,649.4,483.5z"/>
<circle class="st3" cx="454.1" cy="588.5" r="25"/>
<path class="st3" d="M701.4,613.5h-192c-4.4,0-8-3.6-8-8s3.6-8,8-8h192c4.4,0,8,3.6,8,8S705.8,613.5,701.4,613.5z"/>
<path class="st3" d="M649.4,579.5h-140c-4.4,0-8-3.6-8-8s3.6-8,8-8h140c4.4,0,8,3.6,8,8S653.8,579.5,649.4,579.5z"/>
<path class="st6" d="M768.3,658.5h-398c-9.4,0-17-7.6-17-17v-297c0-9.4,7.6-17,17-17h398c9.4,0,17,7.6,17,17v297
	C785.3,650.8,777.6,658.4,768.3,658.5z M370.3,329.5c-8.3,0-15,6.7-15,15v297c0,8.3,6.7,15,15,15h398c8.3,0,15-6.7,15-15v-297
	c0-8.3-6.7-15-15-15H370.3z"/>
<circle class="st5" cx="362.1" cy="330.7" r="56"/>
<path class="st1" d="M354.7,353.8c-1.3,0-2.5-0.4-3.5-1.2h-0.1L338,342.5c-2.6-2-3-5.6-1.1-8.2s5.6-3,8.2-1.1l8.5,6.5l20.1-26.3
	c2-2.6,5.6-3,8.2-1.1l0,0l-0.1,0.2l0.1-0.2c2.6,2,3,5.6,1.1,8.2l-23.7,30.9C358.3,353,356.5,353.8,354.7,353.8z"/>
<path class="st2" d="M359.8,667.3c-1,0-2-0.2-2.9-0.6l0,0l-105.5-47.3c-7.2-3.2-10.5-11.8-7.2-19c3.2-7.2,11.8-10.5,19-7.2l0,0
	l105.5,47.3c3.5,1.6,5.1,5.7,3.5,9.3l0,0l-6,13.5C365.1,665.7,362.6,667.3,359.8,667.3z"/>
<path class="st6" d="M382,796.5H1c-0.6,0-1-0.4-1-1s0.4-1,1-1h381c0.6,0,1,0.4,1,1S382.6,796.5,382,796.5z"/>
</svg>
