<?xml version="1.0" encoding="utf-8"?>
<!-- Generator: Adobe Illustrator 24.2.3, SVG Export Plug-In . SVG Version: 6.00 Build 0)  -->
<svg version="1.1" id="a3a44bd2-1d5c-46a0-ab88-fbd2ff893ca0"
	 xmlns="http://www.w3.org/2000/svg" xmlns:xlink="http://www.w3.org/1999/xlink" x="0px" y="0px" viewBox="0 0 1100.5 691.7"
	 style="enable-background:new 0 0 1100.5 691.7;" xml:space="preserve">
<style type="text/css">
	.st0{fill:#3F3D56;}
	.st1{fill:#FFFFFF;}
	.st2{fill:#F9A826;}
	.st3{opacity:0.1;enable-background:new    ;}
	.st4{fill:#5A76FD;}
	.st5{fill:#FCFCFC;}
</style>
<path class="st0" d="M1100.5,284.1h-1.9v-50.9c0-16.3-13.2-29.5-29.5-29.5l0,0H961.3c-16.3,0-29.5,13.2-29.5,29.5l0,0v279.3
	c0,16.3,13.2,29.5,29.5,29.5l0,0h107.9c16.3,0,29.5-13.2,29.5-29.5l0,0V320.3h1.9L1100.5,284.1L1100.5,284.1z"/>
<path class="st1" d="M1092.4,234.9v278.9c0,12.2-9.9,22-22,22H962c-12.2,0-22-9.9-22-22l0,0V234.9c0-12.2,9.8-22,22-22h13.2
	c-2.2,5.4,0.4,11.5,5.8,13.6c1.2,0.5,2.6,0.8,3.9,0.8h61.8c5.8,0,10.4-4.7,10.5-10.4c0-1.4-0.3-2.7-0.8-4h14.1
	C1082.5,212.9,1092.4,222.8,1092.4,234.9z"/>
<rect x="952.9" y="348.7" class="st2" width="126" height="34"/>
<path class="st0" d="M1076.9,383.7h-122c-1.7,0-3-1.3-3-3v-30c0-1.7,1.3-3,3-3h122c1.7,0,3,1.3,3,3v30
	C1079.8,382.4,1078.5,383.7,1076.9,383.7z M954.9,349.7c-0.6,0-1,0.4-1,1v30c0,0.6,0.4,1,1,1h122c0.6,0,1-0.4,1-1v-30
	c0-0.6-0.4-1-1-1H954.9z"/>
<rect x="959.9" y="374.7" class="st0" width="16" height="2"/>
<rect x="981.9" y="374.7" class="st0" width="16" height="2"/>
<rect x="1003.9" y="374.7" class="st0" width="16" height="2"/>
<rect x="1025.9" y="374.7" class="st0" width="16" height="2"/>
<rect x="1047.9" y="374.7" class="st0" width="16" height="2"/>
<path class="st3" d="M1092.4,485.5v28.4c0,12.2-9.9,22-22,22H962c-12.2,0-22-9.9-22-22l0,0V383.4L1092.4,485.5z"/>
<rect x="120.9" y="440.7" class="st1" width="473" height="232"/>
<path class="st3" d="M476.7,672.7H126c-1.1,0-2-0.9-2-2v-228c0-1.1,0.9-2,2-2h4.4L476.7,672.7z"/>
<rect x="318.9" y="490.7" class="st0" width="733" height="2"/>
<path class="st0" d="M550.6,4.3H341.1V0h-95v4.3H35.8c-7.8,0-14.2,6.3-14.2,14.2l0,0v286.9c0,7.8,6.3,14.2,14.2,14.2h514.8
	c7.8,0,14.2-6.3,14.2-14.2V18.5C564.8,10.7,558.4,4.3,550.6,4.3L550.6,4.3z"/>
<rect x="40.6" y="29.4" class="st1" width="505.2" height="285"/>
<circle class="st4" cx="292.7" cy="16.4" r="5.2"/>
<path class="st0" d="M190.9,135.7h-12c-1.7,0-3-1.3-3-3v-12c0-1.7,1.3-3,3-3h12c1.7,0,3,1.3,3,3v12
	C193.8,134.4,192.5,135.7,190.9,135.7z M178.9,119.7c-0.6,0-1,0.4-1,1v12c0,0.6,0.4,1,1,1h12c0.6,0,1-0.4,1-1v-12c0-0.6-0.4-1-1-1
	H178.9z"/>
<rect x="176.9" y="133.7" class="st0" width="228" height="2"/>
<rect x="351.9" y="183.7" class="st2" width="53" height="16"/>
<path class="st0" d="M402.9,200.7h-49c-1.7,0-3-1.3-3-3v-12c0-1.7,1.3-3,3-3h49c1.7,0,3,1.3,3,3v12
	C405.8,199.4,404.5,200.7,402.9,200.7z M353.9,184.7c-0.6,0-1,0.4-1,1v12c0,0.6,0.4,1,1,1h49c0.6,0,1-0.4,1-1v-12c0-0.6-0.4-1-1-1
	H353.9z"/>
<rect x="716.9" y="198.7" class="st4" width="100" height="70"/>
<path class="st0" d="M813.9,271.2h-96c-2.2,0-4-1.8-4-4v-66c0-2.2,1.8-4,4-4h96c2.2,0,4,1.8,4,4v66
	C817.8,269.4,816.1,271.2,813.9,271.2z M717.9,201.2v66h96v-66L717.9,201.2L717.9,201.2z"/>
<path class="st0" d="M802.9,198.7h-4c0-18.2-14.8-33-33-33s-33,14.8-33,33h-4c0-20.4,16.6-37,37-37S802.9,178.3,802.9,198.7z"/>
<path class="st5" d="M775.9,226.2c0-5.5-4.5-10-10-10s-10,4.5-10,10c0,3.5,1.8,6.7,4.7,8.5v10.7c0,2.9,2.4,5.3,5.3,5.3l0,0l0,0
	c2.9,0,5.3-2.4,5.3-5.3l0,0v-10.7C774.1,232.9,775.9,229.7,775.9,226.2z"/>
<rect x="284.4" y="562.7" class="st0" width="16" height="2"/>
<rect x="306.4" y="562.7" class="st0" width="16" height="2"/>
<rect x="328.4" y="562.7" class="st0" width="16" height="2"/>
<rect x="350.4" y="562.7" class="st0" width="16" height="2"/>
<rect x="372.4" y="562.7" class="st0" width="16" height="2"/>
<path class="st0" d="M593.9,674.7h-469c-2.2,0-4-1.8-4-4v-228c0-2.2,1.8-4,4-4h469c2.2,0,4,1.8,4,4v228
	C597.8,672.9,596.1,674.7,593.9,674.7z M124.9,442.7v228h469v-228H124.9z"/>
<circle class="st0" cx="145.9" cy="470.7" r="6"/>
<circle class="st0" cx="166.9" cy="470.7" r="6"/>
<circle class="st0" cx="187.9" cy="470.7" r="6"/>
<path class="st0" d="M403.9,576.7h-135c-1.7,0-3-1.3-3-3v-34c0-1.7,1.3-3,3-3h135c1.7,0,3,1.3,3,3v34
	C406.8,575.4,405.5,576.7,403.9,576.7z M268.9,538.7c-0.6,0-1,0.4-1,1v34c0,0.6,0.4,1,1,1h135c0.6,0,1-0.4,1-1v-34c0-0.6-0.4-1-1-1
	H268.9z"/>
<circle class="st4" cx="443.9" cy="555.7" r="18"/>
<path class="st0" d="M443.9,575.7c-10.5,0-19-8.5-19-19s8.5-19,19-19s19,8.5,19,19l0,0C462.8,567.2,454.3,575.7,443.9,575.7z
	 M443.9,539.7c-9.4,0-17,7.6-17,17s7.6,17,17,17s17-7.6,17-17C460.8,547.3,453.2,539.7,443.9,539.7z"/>
<polygon class="st2" points="444.1,563.8 434.4,554.1 437.3,551.3 443.6,557.6 461.2,532.6 464.5,534.9 "/>
<polygon class="st3" points="433.8,314.3 40.6,314.3 40.6,50.9 "/>
<path class="st0" d="M578.9,309.2h-49.3v-3.6c0-0.4-0.3-0.7-0.7-0.7H512c-0.4,0-0.7,0.3-0.7,0.7l0,0v3.6h-10.6v-3.6
	c0-0.4-0.3-0.7-0.7-0.7l0,0h-16.9c-0.4,0-0.7,0.3-0.7,0.7l0,0v3.6h-10.6v-3.6c0-0.4-0.3-0.7-0.7-0.7l0,0h-16.9
	c-0.4,0-0.7,0.3-0.7,0.7l0,0v3.6H443v-3.6c0-0.4-0.3-0.7-0.7-0.7l0,0h-16.9c-0.4,0-0.7,0.3-0.7,0.7l0,0v3.6h-10.6v-3.6
	c0-0.4-0.3-0.7-0.7-0.7l0,0h-16.9c-0.4,0-0.7,0.3-0.7,0.7l0,0v3.6h-10.6v-3.6c0-0.4-0.3-0.7-0.7-0.7l0,0h-16.9
	c-0.4,0-0.7,0.3-0.7,0.7l0,0v3.6h-10.6v-3.6c0-0.4-0.3-0.7-0.7-0.7l0,0H223.3c-0.4,0-0.7,0.3-0.7,0.7l0,0v3.6H212v-3.6
	c0-0.4-0.3-0.7-0.7-0.7l0,0h-16.9c-0.4,0-0.7,0.3-0.7,0.7l0,0v3.6h-10.6v-3.6c0-0.4-0.3-0.7-0.7-0.7l0,0h-16.9
	c-0.4,0-0.7,0.3-0.7,0.7l0,0v3.6h-10.6v-3.6c0-0.4-0.3-0.7-0.7-0.7l0,0h-16.9c-0.4,0-0.7,0.3-0.7,0.7l0,0v3.6h-10.6v-3.6
	c0-0.4-0.3-0.7-0.7-0.7l0,0h-16.9c-0.4,0-0.7,0.3-0.7,0.7l0,0v3.6H96.5v-3.6c0-0.4-0.3-0.7-0.7-0.7l0,0H78.9c-0.4,0-0.7,0.3-0.7,0.7
	l0,0v3.6H67.6v-3.6c0-0.4-0.3-0.7-0.7-0.7l0,0H50c-0.4,0-0.7,0.3-0.7,0.7l0,0v3.6H16.9c-9.3,0-16.9,7.6-16.9,16.9v7.6
	c0,9.3,7.6,16.9,16.9,16.9h562c9.3,0,16.9-7.6,16.9-16.9v-7.6C595.9,316.7,588.3,309.2,578.9,309.2L578.9,309.2z"/>
<path class="st0" d="M424.9,217.7h-264c-1.7,0-3-1.3-3-3v-110c0-1.7,1.3-3,3-3h264c1.7,0,3,1.3,3,3v110
	C427.8,216.4,426.5,217.7,424.9,217.7z M160.9,103.7c-0.6,0-1,0.4-1,1v110c0,0.6,0.4,1,1,1h264c0.6,0,1-0.4,1-1v-110
	c0-0.6-0.4-1-1-1H160.9z"/>
<path class="st0" d="M190.9,165.7h-12c-1.7,0-3-1.3-3-3v-12c0-1.7,1.3-3,3-3h12c1.7,0,3,1.3,3,3v12
	C193.8,164.4,192.5,165.7,190.9,165.7z M178.9,149.7c-0.6,0-1,0.4-1,1v12c0,0.6,0.4,1,1,1h12c0.6,0,1-0.4,1-1v-12c0-0.6-0.4-1-1-1
	H178.9z"/>
<rect x="176.9" y="163.7" class="st0" width="228" height="2"/>
<rect x="264.9" y="269.7" class="st0" width="733" height="2"/>
<circle class="st0" cx="264.9" cy="269.7" r="14"/>
<circle class="st0" cx="997.9" cy="271.7" r="11"/>
<circle class="st0" cx="1051.9" cy="492.7" r="11"/>
<circle class="st0" cx="321.9" cy="492.7" r="11"/>
</svg>
