<?xml version="1.0" encoding="utf-8"?>
<!-- Generator: Adobe Illustrator 24.2.3, SVG Export Plug-In . SVG Version: 6.00 Build 0)  -->
<svg version="1.1" id="abd5c76d-7219-42bc-94fd-ab97f702b65a"
	 xmlns="http://www.w3.org/2000/svg" xmlns:xlink="http://www.w3.org/1999/xlink" x="0px" y="0px" viewBox="0 0 567.2 517.3"
	 style="enable-background:new 0 0 567.2 517.3;" xml:space="preserve">
<style type="text/css">
	.st0{fill:#5A76FD;}
	.st1{fill:#3F3D56;}
	.st2{fill:#F9A826;}
	.st3{fill:#CCCCCC;}
	.st4{fill:#E6E6E6;}
</style>
<rect x="10" y="115.9" transform="matrix(0.9601 -0.2797 0.2797 0.9601 -28.4328 77.5456)" class="st0" width="495" height="45"/>
<path class="st1" d="M70.3,384.5l-70-240.4c-1.1-3.7,1.1-7.6,4.8-8.7L468.8,0.3c3.7-1.1,7.6,1.1,8.7,4.8l62.1,213l-1.9,0.6
	l-62.1-213c-0.8-2.6-3.5-4.2-6.2-3.4L5.6,137.3c-2.7,0.8-4.2,3.5-3.4,6.2l70,240.4L70.3,384.5z"/>
<path class="st2" d="M436.9,219c-2.9,0-5.4-1.9-6.2-4.7L418.9,174c-1-3.4,1-7.1,4.4-8.1l40.3-11.7c3.4-1,7.1,1,8.1,4.4l11.7,40.3
	c1,3.4-1,7.1-4.4,8.1l-40.3,11.7C438.1,218.9,437.5,219,436.9,219z"/>
<path class="st2" d="M69.2,144.8c-0.1-0.4-0.3-0.8-0.4-1.2c-2.5-6.1-9.5-9-15.7-6.5c-5.2,2.1-8.2,7.6-7.2,13.2
	c0.1,0.4,0.2,0.8,0.3,1.3c1.5,5.1,6.2,8.6,11.5,8.6c1.1,0,2.3-0.2,3.4-0.5C67.4,157.8,71.1,151.2,69.2,144.8z M60.5,157.8
	c-5.3,1.5-10.8-1.5-12.4-6.8c-0.1-0.4-0.2-0.8-0.3-1.3c-0.9-5.5,2.9-10.6,8.3-11.4c4.5-0.7,8.9,1.7,10.7,5.9
	c0.2,0.4,0.3,0.8,0.5,1.2C68.9,150.7,65.8,156.2,60.5,157.8L60.5,157.8z"/>
<path class="st2" d="M39.8,153.4c-1.3-4.5,0.4-9.3,4.2-12.1c-6.1-0.3-11.2,4.4-11.5,10.5S36.9,163,43,163.3c2.5,0.1,4.9-0.6,6.9-2
	C45.2,161.1,41.1,157.9,39.8,153.4z"/>
<path class="st3" d="M350.7,202.9c-0.9-3.2-4.2-5.1-7.4-4.2l0,0l-66.4,18.6l-7.1,2h44.9l7.1-2l24.8-6.9
	C349.7,209.5,351.6,206.2,350.7,202.9z"/>
<path class="st3" d="M303.7,189.1c-0.9-3.2-4.2-5.1-7.5-4.2l-99.6,27.9c-2.9,0.8-4.7,3.6-4.4,6.6H218l7.2-2l74.3-20.8
	C302.7,195.6,304.6,192.3,303.7,189.1z"/>
<path class="st1" d="M560.2,217.3h-483c-3.9,0-7,3.1-7,7v286c0,3.9,3.1,7,7,7h483c3.9,0,7-3.1,7-7v-286
	C567.2,220.4,564,217.3,560.2,217.3z M565.2,510.3c0,2.8-2.2,5-5,5h-483c-2.8,0-5-2.2-5-5v-286c0-2.8,2.2-5,5-5h483c2.8,0,5,2.2,5,5
	V510.3z"/>
<path class="st2" d="M124.2,256.3c-6.6,0-12-5.4-12-12s5.4-12,12-12c6.6,0,12,5.4,12,12S130.8,256.3,124.2,256.3z M124.2,234.3
	c-5.5,0-10,4.5-10,10s4.5,10,10,10s10-4.5,10-10S129.7,234.3,124.2,234.3z"/>
<path class="st2" d="M105.5,244.3c0-4.7,3-8.9,7.4-10.4c-5.7-2-12,1.1-14,6.8s1.1,12,6.8,14c2.3,0.8,4.9,0.8,7.2,0
	C108.5,253.2,105.5,249,105.5,244.3z"/>
<path class="st2" d="M172.8,386.1c-5,0-9-4-9-9v-27c0-5,4-9,9-9s9,4,9,9v27C181.8,382.1,177.8,386.1,172.8,386.1z"/>
<path class="st2" d="M196.8,386.1c-5,0-9-4-9-9v-27c0-5,4-9,9-9s9,4,9,9v27C205.8,382.1,201.8,386.1,196.8,386.1z"/>
<path class="st2" d="M220.8,386.1c-5,0-9-4-9-9v-27c0-5,4-9,9-9s9,4,9,9v27C229.8,382.1,225.8,386.1,220.8,386.1z"/>
<path class="st2" d="M257.8,386.1c-5,0-9-4-9-9v-27c0-5,4-9,9-9s9,4,9,9v27C266.8,382.1,262.8,386.1,257.8,386.1z"/>
<path class="st2" d="M281.8,386.1c-5,0-9-4-9-9v-27c0-5,4-9,9-9s9,4,9,9v27C290.8,382.1,286.8,386.1,281.8,386.1z"/>
<path class="st2" d="M305.8,386.1c-5,0-9-4-9-9v-27c0-5,4-9,9-9s9,4,9,9v27C314.8,382.1,310.8,386.1,305.8,386.1z"/>
<path class="st2" d="M342.8,386.1c-5,0-9-4-9-9v-27c0-5,4-9,9-9s9,4,9,9v27C351.8,382.1,347.8,386.1,342.8,386.1z"/>
<path class="st2" d="M366.8,386.1c-5,0-9-4-9-9v-27c0-5,4-9,9-9s9,4,9,9v27C375.8,382.1,371.8,386.1,366.8,386.1z"/>
<path class="st2" d="M390.8,386.1c-5,0-9-4-9-9v-27c0-5,4-9,9-9s9,4,9,9v27C399.8,382.1,395.8,386.1,390.8,386.1z"/>
<path class="st2" d="M427.8,386.1c-5,0-9-4-9-9v-27c0-5,4-9,9-9s9,4,9,9v27C436.8,382.1,432.8,386.1,427.8,386.1z"/>
<path class="st2" d="M451.8,386.1c-5,0-9-4-9-9v-27c0-5,4-9,9-9s9,4,9,9v27C460.8,382.1,456.8,386.1,451.8,386.1z"/>
<path class="st2" d="M475.8,386.1c-5,0-9-4-9-9v-27c0-5,4-9,9-9s9,4,9,9v27C484.8,382.1,480.8,386.1,475.8,386.1z"/>
<path class="st4" d="M233.8,486.3H104.4c-3.3,0-6-2.7-6-6s2.7-6,6-6h129.4c3.3,0,6,2.7,6,6S237.2,486.3,233.8,486.3z"/>
<path class="st4" d="M192.3,460.3h-46.4c-3.3,0-6-2.7-6-6s2.7-6,6-6h46.4c3.3,0,6,2.7,6,6S195.7,460.3,192.3,460.3z"/>
<rect x="71.8" y="277.1" class="st1" width="493" height="2"/>
</svg>
